# xmcd CD database file
#
# Track frame offsets:
#	150
#	13345
#	36692
#
# Disc length: 830 seconds
#
# Revision: 1
# Processed by: cddbd v1.5.1PL0 Copyright (c) Steve Scherf et al.
# Submitted via: CDex 1.51
#
DISCID=26033c03
DTITLE=wyolica - チャイム
DYEAR=2003
DGENRE=Blues
TTITLE0=チャイム
TTITLE1=チャイム(Las Kongas Remix)
TTITLE2=Blues No.8
EXTD=YEAR: 2003
EXTT0=
EXTT1=
EXTT2=
PLAYORDER=
